<svg viewBox="0 0 40 40" xmlns="http://www.w3.org/2000/svg">
  <defs>
    <linearGradient id="bg" x1="0" y1="0" x2="1" y2="1">
      <stop offset="0%" stop-color="#31359C"/>
      <stop offset="55%" stop-color="#00A29B"/>
      <stop offset="100%" stop-color="#FDCA56"/>
    </linearGradient>
  </defs>
  <rect width="40" height="40" rx="9" fill="url(#bg)"/>
  <path d="M11 11h10c4.5 0 7 2.2 7 5.5 0 2.4-1.5 4-3.4 4.6 2.3.5 4.1 2.3 4.1 5 0 3.5-2.6 5.9-7.4 5.9H11V11Zm9.6 8c2 0 3.1-.9 3.1-2.4 0-1.5-1.1-2.3-3.1-2.3H15v4.7h5.6Zm.4 8.6c2.2 0 3.4-.9 3.4-2.6 0-1.6-1.2-2.6-3.4-2.6H15v5.2h6Z" fill="#FFFFFF"/>
</svg>
